<svg xmlns="http://www.w3.org/2000/svg" xmlns:xlink="http://www.w3.org/1999/xlink" width="600" zoomAndPan="magnify" viewBox="0 0 450 74.999997" height="100" preserveAspectRatio="xMidYMid meet" version="1.0"><path fill="#ffffff" d="M 52.359375 2.957031 L 406.925781 2.957031 C 407.429688 2.957031 407.910156 3.054688 408.375 3.246094 C 408.839844 3.4375 409.25 3.710938 409.601562 4.066406 C 409.957031 4.421875 410.230469 4.832031 410.421875 5.296875 C 410.617188 5.757812 410.710938 6.242188 410.710938 6.742188 L 410.710938 71.738281 C 410.710938 72.242188 410.617188 72.722656 410.421875 73.1875 C 410.230469 73.652344 409.957031 74.0625 409.601562 74.414062 C 409.25 74.769531 408.839844 75.042969 408.375 75.238281 C 407.910156 75.429688 407.429688 75.523438 406.925781 75.523438 L 52.359375 75.523438 C 51.855469 75.523438 51.371094 75.429688 50.910156 75.238281 C 50.445312 75.042969 50.035156 74.769531 49.679688 74.414062 C 49.324219 74.0625 49.050781 73.652344 48.859375 73.1875 C 48.667969 72.722656 48.570312 72.242188 48.574219 71.738281 L 48.574219 6.742188 C 48.570312 6.242188 48.667969 5.757812 48.859375 5.296875 C 49.050781 4.832031 49.324219 4.421875 49.679688 4.066406 C 50.035156 3.710938 50.445312 3.4375 50.910156 3.246094 C 51.371094 3.054688 51.855469 2.957031 52.359375 2.957031 Z M 52.359375 2.957031 " fill-opacity="1" fill-rule="nonzero"/><path fill="#04065b" d="M 91.6875 8.667969 C 87.300781 7.609375 82.980469 6.804688 80.457031 6.933594 C 77.929688 7.058594 73.578125 7.917969 69.164062 8.9375 C 64.894531 9.929688 60.566406 11.070312 57.78125 11.847656 L 70.984375 15.515625 L 70.984375 16.097656 L 69.492188 16.96875 L 69.492188 19.382812 L 90.96875 19.617188 L 91.117188 15.269531 L 102.527344 12.941406 L 102.375 16.933594 L 101.636719 20.230469 C 101.894531 20.523438 102.28125 20.855469 102.628906 20.949219 C 102.804688 21 102.964844 20.988281 103.097656 20.890625 C 103.230469 20.789062 103.347656 20.589844 103.421875 20.234375 C 103.714844 18.800781 103.296875 17.449219 103.054688 16.960938 L 103.046875 16.941406 L 103.195312 11.90625 C 100.445312 11.023438 96.039062 9.722656 91.6875 8.667969 Z M 91.71875 8.515625 C 96.105469 9.574219 100.542969 10.886719 103.292969 11.773438 L 103.347656 11.789062 L 103.195312 16.90625 C 103.453125 17.433594 103.867188 18.804688 103.566406 20.269531 C 103.492188 20.644531 103.359375 20.886719 103.179688 21.019531 C 103.003906 21.152344 102.792969 21.160156 102.589844 21.105469 C 102.1875 20.992188 101.765625 20.613281 101.5 20.304688 L 101.472656 20.273438 L 102.226562 16.910156 L 102.371094 13.132812 L 91.261719 15.402344 L 91.113281 19.777344 L 69.34375 19.539062 L 69.34375 16.875 L 70.835938 16.003906 L 70.835938 15.636719 L 57.195312 11.847656 L 57.46875 11.773438 C 60.242188 10.992188 64.714844 9.808594 69.132812 8.785156 C 73.546875 7.761719 77.90625 6.902344 80.449219 6.773438 C 82.996094 6.648438 87.335938 7.457031 91.71875 8.515625 Z M 91.71875 8.515625 " fill-opacity="1" fill-rule="evenodd"/><path fill="#04065b" d="M 80.457031 6.933594 C 82.980469 6.804688 87.300781 7.609375 91.6875 8.667969 C 96.039062 9.722656 100.445312 11.023438 103.195312 11.90625 L 103.046875 16.941406 L 103.054688 16.960938 C 103.296875 17.449219 103.714844 18.800781 103.421875 20.234375 C 103.347656 20.589844 103.230469 20.789062 103.097656 20.890625 C 102.964844 20.988281 102.804688 21 102.628906 20.949219 C 102.28125 20.855469 101.894531 20.523438 101.636719 20.230469 L 102.375 16.933594 L 102.527344 12.941406 L 91.117188 15.269531 L 90.96875 19.617188 L 69.492188 19.382812 L 69.492188 16.96875 L 70.984375 16.097656 L 70.984375 15.515625 L 57.78125 11.847656 C 60.566406 11.070312 64.894531 9.929688 69.164062 8.9375 C 73.578125 7.917969 77.929688 7.058594 80.457031 6.933594 Z M 80.457031 6.933594 " fill-opacity="1" fill-rule="nonzero"/><path stroke-linecap="butt" transform="matrix(0.630905, 0, 0, 0.631016, -384.859618, -344.732082)" fill="none" stroke-linejoin="miter" d="M 753.939394 570.498678 L 753.7165 576.899566 L 720.660079 576.534332 L 720.660079 573.494839 L 722.777572 572.256756 L 723.025232 572.108186 L 723.025232 570.51725 L 722.659934 570.418203 L 703.466282 565.088257 C 707.83129 563.893507 713.824662 562.339714 719.749928 560.965442 C 726.752515 559.343553 733.606506 557.994043 737.562875 557.79595 C 741.482095 557.604047 748.261788 558.854511 755.221034 560.538303 C 761.920258 562.154001 768.699931 564.147314 773.064939 565.546348 L 772.842045 573.148175 L 772.842045 573.271984 L 772.891577 573.383411 L 772.910151 573.414363 L 773.120662 573.302936 L 772.910151 573.414363 C 773.256875 574.11388 773.882217 576.138145 773.448812 578.280028 C 773.343556 578.787642 773.19496 578.960974 773.120662 579.016687 C 773.07113 579.05383 772.996832 579.084782 772.811087 579.035259 C 772.625342 578.979545 772.390065 578.855737 772.142405 578.663834 C 771.969043 578.533835 771.801873 578.379075 771.653277 578.224314 L 772.767747 573.259603 L 772.773938 573.21627 L 772.78013 573.166747 L 773.021598 566.840144 L 773.046364 566.202532 L 772.421023 566.33253 L 754.33565 570.022017 L 753.951777 570.102492 Z M 753.939394 570.498678 " stroke="#04065b" stroke-width="1" stroke-opacity="1" stroke-miterlimit="4"/><path fill="#ff8b00" d="M 80.433594 22.574219 L 93.453125 29.046875 L 93.453125 41.984375 L 80.433594 48.453125 L 67.410156 41.984375 L 67.410156 29.046875 Z M 80.433594 22.574219 " fill-opacity="1" fill-rule="nonzero"/><path fill="#ff8b00" d="M 94.101562 42.703125 L 107.125 49.53125 L 107.125 63.191406 L 94.101562 70.019531 L 81.082031 63.191406 L 81.082031 49.53125 Z M 94.101562 42.703125 " fill-opacity="1" fill-rule="nonzero"/><path fill="#ff8b00" d="M 66.761719 42.703125 L 79.785156 49.53125 L 79.785156 63.191406 L 66.761719 70.019531 L 53.742188 63.191406 L 53.742188 49.53125 Z M 66.761719 42.703125 " fill-opacity="1" fill-rule="nonzero"/><path fill="#04065b" d="M 157.144531 57.40625 C 155.640625 57.40625 154.464844 56.988281 153.617188 56.148438 C 152.769531 55.3125 152.34375 54.117188 152.34375 52.5625 L 152.34375 46.625 L 154.796875 46.625 L 154.796875 52.46875 C 154.796875 53.480469 155.003906 54.207031 155.417969 54.652344 C 155.832031 55.09375 156.414062 55.316406 157.160156 55.316406 C 157.90625 55.316406 158.488281 55.09375 158.902344 54.652344 C 159.3125 54.207031 159.519531 53.480469 159.519531 52.46875 L 159.519531 46.625 L 161.945312 46.625 L 161.945312 52.5625 C 161.945312 54.117188 161.519531 55.3125 160.671875 56.148438 C 159.824219 56.988281 158.648438 57.40625 157.144531 57.40625 Z M 164.367188 57.226562 L 164.367188 46.625 L 166.398438 46.625 L 172.652344 54.257812 L 171.667969 54.257812 L 171.667969 46.625 L 174.089844 46.625 L 174.089844 57.226562 L 172.074219 57.226562 L 165.804688 49.59375 L 166.789062 49.59375 L 166.789062 57.226562 Z M 176.597656 57.226562 L 176.597656 46.625 L 179.050781 46.625 L 179.050781 57.226562 Z M 183.761719 57.226562 L 183.761719 48.625 L 180.367188 48.625 L 180.367188 46.625 L 189.605469 46.625 L 189.605469 48.625 L 186.214844 48.625 L 186.214844 57.226562 Z M 200.363281 57.40625 C 199.523438 57.40625 198.746094 57.269531 198.03125 56.996094 C 197.324219 56.726562 196.707031 56.339844 196.183594 55.847656 C 195.667969 55.351562 195.265625 54.773438 194.972656 54.105469 C 194.6875 53.4375 194.546875 52.710938 194.546875 51.925781 C 194.546875 51.136719 194.6875 50.410156 194.972656 49.742188 C 195.265625 49.078125 195.671875 48.496094 196.199219 48.003906 C 196.722656 47.507812 197.339844 47.125 198.046875 46.851562 C 198.75 46.578125 199.519531 46.441406 200.347656 46.441406 C 201.183594 46.441406 201.949219 46.578125 202.648438 46.851562 C 203.355469 47.125 203.964844 47.507812 204.480469 48.003906 C 205.003906 48.496094 205.414062 49.078125 205.707031 49.742188 C 206 50.398438 206.144531 51.128906 206.144531 51.925781 C 206.144531 52.710938 206 53.445312 205.707031 54.121094 C 205.414062 54.785156 205.003906 55.367188 204.480469 55.863281 C 203.964844 56.347656 203.355469 56.726562 202.648438 56.996094 C 201.949219 57.269531 201.1875 57.40625 200.363281 57.40625 Z M 200.347656 55.316406 C 200.820312 55.316406 201.253906 55.234375 201.648438 55.074219 C 202.050781 54.914062 202.40625 54.679688 202.707031 54.378906 C 203.011719 54.074219 203.242188 53.714844 203.40625 53.300781 C 203.578125 52.890625 203.664062 52.429688 203.664062 51.925781 C 203.664062 51.417969 203.578125 50.960938 203.40625 50.546875 C 203.242188 50.132812 203.011719 49.773438 202.707031 49.472656 C 202.414062 49.167969 202.066406 48.9375 201.664062 48.773438 C 201.261719 48.613281 200.820312 48.53125 200.347656 48.53125 C 199.871094 48.53125 199.433594 48.613281 199.03125 48.773438 C 198.636719 48.9375 198.289062 49.167969 197.984375 49.472656 C 197.683594 49.773438 197.445312 50.132812 197.273438 50.546875 C 197.113281 50.960938 197.03125 51.417969 197.03125 51.925781 C 197.03125 52.417969 197.113281 52.878906 197.273438 53.300781 C 197.445312 53.714844 197.675781 54.074219 197.96875 54.378906 C 198.273438 54.679688 198.625 54.914062 199.03125 55.074219 C 199.433594 55.234375 199.871094 55.316406 200.347656 55.316406 Z M 210.261719 51.394531 L 215.347656 51.394531 L 215.347656 53.363281 L 210.261719 53.363281 Z M 210.441406 57.226562 L 207.988281 57.226562 L 207.988281 46.625 L 216 46.625 L 216 48.59375 L 210.441406 48.59375 Z M 221.949219 57.226562 L 221.949219 46.625 L 226.535156 46.625 C 227.484375 46.625 228.300781 46.78125 228.988281 47.09375 C 229.675781 47.394531 230.207031 47.835938 230.578125 48.410156 C 230.953125 48.988281 231.140625 49.671875 231.140625 50.472656 C 231.140625 51.257812 230.953125 51.941406 230.578125 52.515625 C 230.207031 53.082031 229.675781 53.515625 228.988281 53.816406 C 228.300781 54.121094 227.484375 54.273438 226.535156 54.273438 L 223.3125 54.273438 L 224.402344 53.195312 L 224.402344 57.226562 Z M 228.6875 57.226562 L 226.035156 53.378906 L 228.65625 53.378906 L 231.335938 57.226562 Z M 224.402344 53.46875 L 223.3125 52.316406 L 226.398438 52.316406 C 227.15625 52.316406 227.722656 52.15625 228.097656 51.832031 C 228.46875 51.5 228.65625 51.046875 228.65625 50.472656 C 228.65625 49.886719 228.46875 49.429688 228.097656 49.109375 C 227.722656 48.785156 227.15625 48.625 226.398438 48.625 L 223.3125 48.625 L 224.402344 47.457031 Z M 233.082031 57.226562 L 233.082031 46.625 L 237.671875 46.625 C 238.621094 46.625 239.4375 46.78125 240.125 47.09375 C 240.808594 47.394531 241.339844 47.835938 241.714844 48.410156 C 242.085938 48.988281 242.273438 49.671875 242.273438 50.472656 C 242.273438 51.257812 242.085938 51.941406 241.714844 52.515625 C 241.339844 53.082031 240.808594 53.515625 240.125 53.816406 C 239.4375 54.121094 238.621094 54.273438 237.671875 54.273438 L 234.445312 54.273438 L 235.535156 53.195312 L 235.535156 57.226562 Z M 239.820312 57.226562 L 237.171875 53.378906 L 239.789062 53.378906 L 242.46875 57.226562 Z M 235.535156 53.46875 L 234.445312 52.316406 L 237.535156 52.316406 C 238.292969 52.316406 238.855469 52.15625 239.230469 51.832031 C 239.601562 51.5 239.789062 51.046875 239.789062 50.472656 C 239.789062 49.886719 239.601562 49.429688 239.230469 49.109375 C 238.855469 48.785156 238.292969 48.625 237.535156 48.625 L 234.445312 48.625 L 235.535156 47.457031 Z M 249.289062 57.40625 C 248.472656 57.40625 247.710938 57.277344 247.003906 57.011719 C 246.304688 56.742188 245.699219 56.355469 245.1875 55.863281 C 244.671875 55.367188 244.265625 54.785156 243.972656 54.121094 C 243.691406 53.453125 243.550781 52.722656 243.550781 51.925781 C 243.550781 51.128906 243.691406 50.394531 243.972656 49.730469 C 244.265625 49.0625 244.671875 48.480469 245.1875 47.988281 C 245.710938 47.492188 246.324219 47.113281 247.015625 46.851562 C 247.71875 46.578125 248.472656 46.441406 249.308594 46.441406 C 250.222656 46.441406 251.046875 46.605469 251.785156 46.925781 C 252.539062 47.238281 253.164062 47.703125 253.667969 48.320312 L 252.089844 49.773438 C 251.730469 49.359375 251.328125 49.050781 250.878906 48.851562 C 250.4375 48.636719 249.949219 48.53125 249.425781 48.53125 C 248.929688 48.53125 248.472656 48.613281 248.066406 48.773438 C 247.648438 48.9375 247.289062 49.167969 246.984375 49.472656 C 246.683594 49.773438 246.449219 50.132812 246.277344 50.546875 C 246.113281 50.960938 246.035156 51.417969 246.035156 51.925781 C 246.035156 52.429688 246.113281 52.890625 246.277344 53.300781 C 246.449219 53.714844 246.683594 54.074219 246.984375 54.378906 C 247.289062 54.679688 247.648438 54.914062 248.066406 55.074219 C 248.472656 55.234375 248.929688 55.316406 249.425781 55.316406 C 249.949219 55.316406 250.4375 55.214844 250.878906 55.015625 C 251.328125 54.800781 251.730469 54.484375 252.089844 54.058594 L 253.667969 55.515625 C 253.164062 56.128906 252.539062 56.597656 251.785156 56.921875 C 251.046875 57.246094 250.214844 57.40625 249.289062 57.40625 Z M 258.214844 57.226562 L 262.941406 46.625 L 265.363281 46.625 L 270.101562 57.226562 L 267.527344 57.226562 L 263.652344 47.867188 L 264.621094 47.867188 L 260.734375 57.226562 Z M 260.582031 54.953125 L 261.230469 53.089844 L 266.683594 53.089844 L 267.34375 54.953125 Z M 276.128906 57.40625 C 275.308594 57.40625 274.550781 57.277344 273.84375 57.011719 C 273.144531 56.742188 272.539062 56.355469 272.027344 55.863281 C 271.507812 55.367188 271.105469 54.785156 270.816406 54.121094 C 270.53125 53.453125 270.386719 52.722656 270.386719 51.925781 C 270.386719 51.128906 270.53125 50.394531 270.816406 49.730469 C 271.105469 49.0625 271.507812 48.480469 272.027344 47.988281 C 272.550781 47.492188 273.160156 47.113281 273.855469 46.851562 C 274.550781 46.578125 275.3125 46.441406 276.140625 46.441406 C 277.0625 46.441406 277.886719 46.605469 278.625 46.925781 C 279.371094 47.238281 280 47.703125 280.503906 48.320312 L 278.929688 49.773438 C 278.5625 49.359375 278.160156 49.050781 277.71875 48.851562 C 277.277344 48.636719 276.789062 48.53125 276.265625 48.53125 C 275.765625 48.53125 275.3125 48.613281 274.902344 48.773438 C 274.488281 48.9375 274.128906 49.167969 273.824219 49.472656 C 273.523438 49.773438 273.289062 50.132812 273.113281 50.546875 C 272.953125 50.960938 272.871094 51.417969 272.871094 51.925781 C 272.871094 52.429688 272.953125 52.890625 273.113281 53.300781 C 273.289062 53.714844 273.523438 54.074219 273.824219 54.378906 C 274.128906 54.679688 274.488281 54.914062 274.902344 55.074219 C 275.3125 55.234375 275.765625 55.316406 276.265625 55.316406 C 276.789062 55.316406 277.277344 55.214844 277.71875 55.015625 C 278.160156 54.800781 278.5625 54.484375 278.929688 54.058594 L 280.503906 55.515625 C 280 56.128906 279.371094 56.597656 278.625 56.921875 C 277.886719 57.246094 277.054688 57.40625 276.128906 57.40625 Z M 280.5625 57.226562 L 285.28125 46.625 L 287.703125 46.625 L 292.449219 57.226562 L 289.875 57.226562 L 285.996094 47.867188 L 286.964844 47.867188 L 283.074219 57.226562 Z M 282.921875 54.953125 L 283.570312 53.089844 L 289.023438 53.089844 L 289.691406 54.953125 Z M 293.546875 57.226562 L 293.546875 46.625 L 298.359375 46.625 C 299.507812 46.625 300.523438 46.847656 301.402344 47.289062 C 302.285156 47.722656 302.964844 48.335938 303.464844 49.121094 C 303.957031 49.910156 304.203125 50.84375 304.203125 51.925781 C 304.203125 52.996094 303.957031 53.929688 303.464844 54.726562 C 302.964844 55.515625 302.285156 56.128906 301.402344 56.574219 C 300.523438 57.007812 299.507812 57.226562 298.359375 57.226562 Z M 296 55.210938 L 298.242188 55.210938 C 298.945312 55.210938 299.558594 55.078125 300.070312 54.816406 C 300.59375 54.542969 300.996094 54.160156 301.28125 53.667969 C 301.578125 53.171875 301.722656 52.589844 301.722656 51.925781 C 301.722656 51.25 301.578125 50.667969 301.28125 50.183594 C 300.996094 49.6875 300.59375 49.308594 300.070312 49.046875 C 299.558594 48.773438 298.945312 48.636719 298.242188 48.636719 L 296 48.636719 Z M 308.308594 50.894531 L 313.414062 50.894531 L 313.414062 52.804688 L 308.308594 52.804688 Z M 308.492188 55.257812 L 314.257812 55.257812 L 314.257812 57.226562 L 306.058594 57.226562 L 306.058594 46.625 L 314.0625 46.625 L 314.0625 48.59375 L 308.492188 48.59375 Z M 316.214844 57.226562 L 316.214844 46.625 L 318.238281 46.625 L 322.757812 54.105469 L 321.679688 54.105469 L 326.113281 46.625 L 328.132812 46.625 L 328.15625 57.226562 L 325.863281 57.226562 L 325.84375 50.152344 L 326.265625 50.152344 L 322.726562 56.105469 L 321.621094 56.105469 L 318 50.152344 L 318.519531 50.152344 L 318.519531 57.226562 Z M 333.3125 57.226562 L 333.3125 52.894531 L 333.867188 54.378906 L 329.207031 46.625 L 331.8125 46.625 L 335.382812 52.574219 L 333.886719 52.574219 L 337.476562 46.625 L 339.878906 46.625 L 335.21875 54.378906 L 335.761719 52.894531 L 335.761719 57.226562 Z M 333.3125 57.226562 " fill-opacity="1" fill-rule="nonzero"/><path fill="#04065b" d="M 208.714844 38.902344 C 210.507812 38.902344 212.398438 38.601562 214.085938 37.519531 C 216.519531 35.929688 217.261719 33.601562 217.261719 31.640625 C 217.261719 28.433594 215.773438 26.167969 211.722656 23.027344 L 210.777344 22.320312 C 207.972656 20.191406 207.195312 19.007812 207.195312 17.457031 C 207.195312 15.429688 208.714844 13.976562 211.214844 13.976562 C 213.410156 13.976562 214.390625 14.988281 214.898438 15.632812 C 215.605469 16.511719 215.773438 17.558594 215.773438 17.859375 C 215.773438 18.265625 215.875 18.46875 216.113281 18.46875 C 216.382812 18.46875 216.484375 18.199219 216.484375 17.457031 C 216.484375 14.820312 216.617188 13.839844 216.617188 13.402344 C 216.617188 13.167969 216.449219 13.066406 216.144531 12.996094 C 215.265625 12.761719 213.847656 12.421875 211.65625 12.421875 C 206.960938 12.421875 203.851562 15.089844 203.851562 18.804688 C 203.851562 21.542969 205.136719 23.90625 208.851562 26.8125 L 210.40625 28.027344 C 213.207031 30.1875 213.714844 31.777344 213.714844 33.429688 C 213.714844 35.222656 212.226562 37.28125 209.1875 37.28125 C 207.097656 37.28125 205.101562 36.371094 204.359375 33.871094 C 204.191406 33.296875 204.054688 32.585938 204.054688 32.148438 C 204.054688 31.878906 204.023438 31.574219 203.71875 31.574219 C 203.449219 31.574219 203.347656 31.945312 203.3125 32.453125 C 203.277344 32.992188 203.144531 35.019531 203.144531 36.875 C 203.144531 37.621094 203.246094 37.789062 203.785156 38.023438 C 205.238281 38.667969 206.757812 38.902344 208.714844 38.902344 Z M 208.714844 38.902344 " fill-opacity="1" fill-rule="nonzero"/><path fill="#04065b" d="M 237.386719 38.902344 C 239.546875 38.902344 242.117188 38.667969 243.464844 38.125 C 244.039062 37.890625 244.175781 37.722656 244.34375 37.148438 C 244.683594 36 245.085938 33.058594 245.085938 32.65625 C 245.085938 32.382812 245.019531 32.148438 244.785156 32.148438 C 244.511719 32.148438 244.445312 32.285156 244.34375 32.824219 C 244.210938 33.429688 243.769531 34.410156 243.195312 35.054688 C 241.84375 36.605469 240.023438 36.945312 237.015625 36.945312 C 232.492188 36.945312 226.378906 32.957031 226.378906 24.921875 C 226.378906 21.644531 227.019531 18.433594 229.484375 16.171875 C 230.972656 14.820312 232.894531 14.078125 235.835938 14.078125 C 238.941406 14.078125 241.574219 14.988281 242.691406 16.171875 C 243.535156 17.050781 243.972656 18.230469 244.007812 19.277344 C 244.007812 19.753906 244.074219 20.023438 244.34375 20.023438 C 244.648438 20.023438 244.714844 19.753906 244.75 19.246094 C 244.816406 18.570312 244.785156 16.710938 244.851562 15.597656 C 244.917969 14.414062 245.019531 14.011719 245.019531 13.742188 C 245.019531 13.539062 244.882812 13.367188 244.511719 13.335938 C 243.5 13.234375 242.417969 12.929688 241.136719 12.761719 C 239.582031 12.558594 238.332031 12.421875 236.238281 12.421875 C 231.207031 12.421875 228 13.773438 225.566406 16.003906 C 222.324219 18.976562 221.617188 22.960938 221.617188 25.257812 C 221.617188 28.535156 222.496094 32.316406 225.804688 35.222656 C 228.878906 37.890625 232.761719 38.902344 237.386719 38.902344 Z M 237.386719 38.902344 " fill-opacity="1" fill-rule="nonzero"/><path fill="#04065b" d="M 256.738281 23.636719 C 256.636719 23.636719 256.539062 23.570312 256.539062 23.398438 L 256.539062 22.691406 C 256.539062 17.558594 256.539062 16.609375 256.601562 15.53125 C 256.671875 14.347656 256.941406 13.773438 257.851562 13.605469 C 258.261719 13.539062 258.5625 13.503906 258.835938 13.503906 C 259.238281 13.503906 259.441406 13.4375 259.441406 13.199219 C 259.441406 12.964844 259.199219 12.894531 258.734375 12.894531 C 257.414062 12.894531 255.289062 12.996094 254.472656 12.996094 C 253.566406 12.996094 251.433594 12.894531 249.609375 12.894531 C 249.136719 12.894531 248.902344 12.964844 248.902344 13.199219 C 248.902344 13.4375 249.105469 13.503906 249.476562 13.503906 C 249.949219 13.503906 250.523438 13.539062 250.796875 13.605469 C 251.90625 13.839844 252.179688 14.382812 252.246094 15.53125 C 252.316406 16.609375 252.316406 17.558594 252.316406 22.691406 L 252.316406 28.636719 C 252.316406 31.742188 252.316406 34.410156 252.144531 35.828125 C 252.007812 36.808594 251.84375 37.550781 251.167969 37.6875 C 250.859375 37.753906 250.457031 37.824219 249.949219 37.824219 C 249.546875 37.824219 249.410156 37.925781 249.410156 38.09375 C 249.410156 38.328125 249.648438 38.429688 250.082031 38.429688 C 251.433594 38.429688 253.566406 38.328125 254.34375 38.328125 C 255.289062 38.328125 257.414062 38.429688 259.609375 38.429688 C 260.015625 38.429688 260.285156 38.328125 260.285156 38.09375 C 260.285156 37.925781 260.113281 37.824219 259.742188 37.824219 C 259.238281 37.824219 258.492188 37.753906 258.019531 37.6875 C 257.011719 37.550781 256.800781 36.808594 256.703125 35.863281 C 256.539062 34.410156 256.539062 31.742188 256.539062 28.636719 L 256.539062 25.664062 C 256.539062 25.496094 256.636719 25.460938 256.738281 25.460938 L 269.640625 25.460938 C 269.742188 25.460938 269.84375 25.527344 269.84375 25.664062 L 269.84375 28.636719 C 269.84375 31.742188 269.84375 34.410156 269.671875 35.828125 C 269.535156 36.808594 269.371094 37.550781 268.695312 37.6875 C 268.390625 37.753906 267.980469 37.824219 267.476562 37.824219 C 267.074219 37.824219 266.933594 37.925781 266.933594 38.09375 C 266.933594 38.328125 267.175781 38.429688 267.648438 38.429688 C 268.960938 38.429688 271.09375 38.328125 271.867188 38.328125 C 272.816406 38.328125 274.941406 38.429688 277.136719 38.429688 C 277.539062 38.429688 277.8125 38.328125 277.8125 38.09375 C 277.8125 37.925781 277.640625 37.824219 277.269531 37.824219 C 276.765625 37.824219 276.019531 37.753906 275.546875 37.6875 C 274.539062 37.550781 274.335938 36.808594 274.226562 35.863281 C 274.0625 34.410156 274.0625 31.742188 274.0625 28.636719 L 274.0625 22.691406 C 274.0625 17.558594 274.0625 16.609375 274.128906 15.53125 C 274.195312 14.347656 274.46875 13.773438 275.375 13.605469 C 275.785156 13.539062 276.089844 13.503906 276.359375 13.503906 C 276.765625 13.503906 276.964844 13.4375 276.964844 13.199219 C 276.964844 12.964844 276.734375 12.894531 276.257812 12.894531 C 274.941406 12.894531 272.816406 12.996094 272 12.996094 C 271.09375 12.996094 268.960938 12.894531 267.136719 12.894531 C 266.664062 12.894531 266.429688 12.964844 266.429688 13.199219 C 266.429688 13.4375 266.632812 13.503906 267.003906 13.503906 C 267.476562 13.503906 268.050781 13.539062 268.324219 13.605469 C 269.433594 13.839844 269.703125 14.382812 269.773438 15.53125 C 269.84375 16.609375 269.84375 17.558594 269.84375 22.691406 L 269.84375 23.398438 C 269.84375 23.570312 269.742188 23.636719 269.640625 23.636719 Z M 256.738281 23.636719 " fill-opacity="1" fill-rule="nonzero"/><path fill="#04065b" d="M 295.066406 38.902344 C 303.648438 38.902344 309.046875 32.789062 309.046875 25.054688 C 309.046875 17.320312 303.8125 12.421875 295.40625 12.421875 C 285.273438 12.421875 281.457031 19.886719 281.457031 25.664062 C 281.457031 31.640625 285.375 38.902344 295.066406 38.902344 Z M 296.488281 37.214844 C 290 37.214844 286.121094 31.640625 286.121094 24.617188 C 286.121094 16.207031 290.542969 14.042969 294.421875 14.042969 C 299.960938 14.042969 304.324219 18.738281 304.324219 26.304688 C 304.324219 36.066406 298.851562 37.214844 296.488281 37.214844 Z M 296.488281 37.214844 " fill-opacity="1" fill-rule="nonzero"/><path fill="#04065b" d="M 326.371094 38.902344 C 334.953125 38.902344 340.351562 32.789062 340.351562 25.054688 C 340.351562 17.320312 335.117188 12.421875 326.714844 12.421875 C 316.582031 12.421875 312.765625 19.886719 312.765625 25.664062 C 312.765625 31.640625 316.683594 38.902344 326.371094 38.902344 Z M 327.792969 37.214844 C 321.304688 37.214844 317.425781 31.640625 317.425781 24.617188 C 317.425781 16.207031 321.847656 14.042969 325.730469 14.042969 C 331.269531 14.042969 335.628906 18.738281 335.628906 26.304688 C 335.628906 36.066406 330.15625 37.214844 327.792969 37.214844 Z M 327.792969 37.214844 " fill-opacity="1" fill-rule="nonzero"/><path fill="#04065b" d="M 351.96875 22.691406 C 351.96875 17.558594 351.96875 16.609375 352.039062 15.53125 C 352.105469 14.347656 352.378906 13.773438 353.285156 13.605469 C 353.691406 13.539062 354.234375 13.503906 354.605469 13.503906 C 355.007812 13.503906 355.210938 13.4375 355.210938 13.199219 C 355.210938 12.964844 354.976562 12.894531 354.503906 12.894531 C 353.1875 12.894531 350.71875 12.996094 349.910156 12.996094 C 348.996094 12.996094 346.871094 12.894531 345.285156 12.894531 C 344.777344 12.894531 344.542969 12.964844 344.542969 13.199219 C 344.542969 13.4375 344.746094 13.503906 345.117188 13.503906 C 345.550781 13.503906 345.960938 13.539062 346.226562 13.605469 C 347.34375 13.839844 347.613281 14.382812 347.683594 15.53125 C 347.746094 16.609375 347.746094 17.558594 347.746094 22.691406 L 347.746094 28.636719 C 347.746094 31.742188 347.746094 34.410156 347.582031 35.828125 C 347.445312 36.808594 347.273438 37.550781 346.597656 37.6875 C 346.296875 37.753906 345.894531 37.824219 345.386719 37.824219 C 344.976562 37.824219 344.84375 37.925781 344.84375 38.09375 C 344.84375 38.328125 345.078125 38.429688 345.519531 38.429688 C 346.871094 38.429688 348.996094 38.328125 349.777344 38.328125 C 352.511719 38.328125 354.738281 38.53125 359.601562 38.53125 C 361.355469 38.53125 361.527344 38.363281 361.726562 37.621094 C 362 36.640625 362.238281 34.105469 362.238281 33.734375 C 362.238281 33.332031 362.203125 33.160156 361.96875 33.160156 C 361.695312 33.160156 361.628906 33.363281 361.597656 33.667969 C 361.527344 34.308594 361.121094 35.253906 360.71875 35.695312 C 359.875 36.605469 358.554688 36.640625 356.761719 36.640625 C 354.132812 36.640625 353.253906 36.402344 352.679688 35.898438 C 351.96875 35.289062 351.96875 32.957031 351.96875 28.636719 Z M 351.96875 22.691406 " fill-opacity="1" fill-rule="nonzero"/><path fill="#04065b" d="M 371.253906 38.902344 C 373.039062 38.902344 374.933594 38.601562 376.625 37.519531 C 379.054688 35.929688 379.796875 33.601562 379.796875 31.640625 C 379.796875 28.433594 378.316406 26.167969 374.257812 23.027344 L 373.3125 22.320312 C 370.511719 20.191406 369.734375 19.007812 369.734375 17.457031 C 369.734375 15.429688 371.253906 13.976562 373.753906 13.976562 C 375.949219 13.976562 376.925781 14.988281 377.429688 15.632812 C 378.144531 16.511719 378.316406 17.558594 378.316406 17.859375 C 378.316406 18.265625 378.414062 18.46875 378.648438 18.46875 C 378.921875 18.46875 379.023438 18.199219 379.023438 17.457031 C 379.023438 14.820312 379.152344 13.839844 379.152344 13.402344 C 379.152344 13.167969 378.988281 13.066406 378.679688 12.996094 C 377.804688 12.761719 376.382812 12.421875 374.195312 12.421875 C 369.496094 12.421875 366.390625 15.089844 366.390625 18.804688 C 366.390625 21.542969 367.671875 23.90625 371.386719 26.8125 L 372.941406 28.027344 C 375.746094 30.1875 376.25 31.777344 376.25 33.429688 C 376.25 35.222656 374.761719 37.28125 371.726562 37.28125 C 369.632812 37.28125 367.640625 36.371094 366.894531 33.871094 C 366.730469 33.296875 366.59375 32.585938 366.59375 32.148438 C 366.59375 31.878906 366.5625 31.574219 366.257812 31.574219 C 365.988281 31.574219 365.886719 31.945312 365.847656 32.453125 C 365.816406 32.992188 365.683594 35.019531 365.683594 36.875 C 365.683594 37.621094 365.785156 37.789062 366.320312 38.023438 C 367.773438 38.667969 369.292969 38.902344 371.253906 38.902344 Z M 371.253906 38.902344 " fill-opacity="1" fill-rule="nonzero"/><path fill="#04065b" d="M 391.128906 18.785156 C 390.246094 18.785156 389.425781 18.628906 388.667969 18.308594 C 387.917969 17.992188 387.253906 17.550781 386.691406 16.984375 C 386.125 16.40625 385.683594 15.742188 385.367188 14.988281 C 385.058594 14.234375 384.90625 13.421875 384.90625 12.550781 C 384.90625 11.675781 385.066406 10.863281 385.386719 10.109375 C 385.703125 9.355469 386.144531 8.699219 386.710938 8.132812 C 387.273438 7.554688 387.9375 7.105469 388.6875 6.789062 C 389.457031 6.472656 390.277344 6.3125 391.160156 6.3125 C 392.042969 6.3125 392.863281 6.472656 393.613281 6.789062 C 394.382812 7.09375 395.039062 7.53125 395.59375 8.097656 C 396.164062 8.664062 396.597656 9.320312 396.902344 10.074219 C 397.222656 10.816406 397.378906 11.628906 397.378906 12.515625 C 397.378906 13.398438 397.222656 14.222656 396.902344 14.988281 C 396.585938 15.742188 396.136719 16.40625 395.558594 16.984375 C 394.996094 17.550781 394.332031 17.992188 393.582031 18.308594 C 392.824219 18.628906 392.011719 18.785156 391.128906 18.785156 Z M 391.128906 17.636719 C 391.839844 17.636719 392.511719 17.507812 393.121094 17.25 C 393.734375 16.976562 394.269531 16.613281 394.730469 16.152344 C 395.191406 15.695312 395.542969 15.152344 395.789062 14.527344 C 396.050781 13.902344 396.175781 13.234375 396.175781 12.515625 C 396.175781 11.796875 396.050781 11.128906 395.789062 10.515625 C 395.542969 9.894531 395.199219 9.355469 394.75 8.910156 C 394.316406 8.449219 393.785156 8.097656 393.171875 7.847656 C 392.5625 7.589844 391.890625 7.460938 391.160156 7.460938 C 390.441406 7.460938 389.773438 7.589844 389.148438 7.847656 C 388.535156 8.109375 388 8.472656 387.539062 8.945312 C 387.089844 9.402344 386.742188 9.941406 386.496094 10.550781 C 386.25 11.164062 386.125 11.832031 386.125 12.550781 C 386.125 13.269531 386.25 13.9375 386.496094 14.5625 C 386.742188 15.175781 387.089844 15.710938 387.539062 16.171875 C 387.988281 16.628906 388.515625 16.988281 389.128906 17.25 C 389.742188 17.507812 390.410156 17.636719 391.128906 17.636719 Z M 391.355469 16.117188 C 390.625 16.117188 389.980469 15.972656 389.414062 15.675781 C 388.84375 15.371094 388.398438 14.945312 388.070312 14.40625 C 387.753906 13.863281 387.59375 13.242188 387.59375 12.550781 C 387.59375 11.855469 387.753906 11.234375 388.070312 10.695312 C 388.398438 10.152344 388.84375 9.734375 389.414062 9.441406 C 389.980469 9.132812 390.625 8.980469 391.355469 8.980469 C 392.0625 8.980469 392.679688 9.132812 393.210938 9.441406 C 393.742188 9.734375 394.132812 10.140625 394.378906 10.660156 L 392.789062 11.59375 C 392.609375 11.300781 392.398438 11.089844 392.152344 10.960938 C 391.917969 10.828125 391.644531 10.765625 391.335938 10.765625 C 391.035156 10.765625 390.75 10.835938 390.492188 10.976562 C 390.246094 11.117188 390.042969 11.324219 389.890625 11.59375 C 389.734375 11.867188 389.660156 12.183594 389.660156 12.550781 C 389.660156 12.914062 389.734375 13.234375 389.890625 13.503906 C 390.042969 13.773438 390.246094 13.980469 390.492188 14.121094 C 390.75 14.261719 391.035156 14.332031 391.335938 14.332031 C 391.644531 14.332031 391.917969 14.269531 392.152344 14.140625 C 392.398438 14.011719 392.609375 13.796875 392.789062 13.503906 L 394.378906 14.421875 C 394.132812 14.941406 393.742188 15.351562 393.210938 15.660156 C 392.679688 15.964844 392.0625 16.117188 391.355469 16.117188 Z M 391.355469 16.117188 " fill-opacity="1" fill-rule="nonzero"/><path stroke-linecap="butt" transform="matrix(0.630905, 0, 0, 0.631016, -384.859618, -344.732082)" fill-opacity="1" fill="#ff8b00" fill-rule="nonzero" stroke-linejoin="miter" d="M 795.998256 606.786882 L 804.635399 606.786882 L 804.635399 575.271487 L 824.367711 575.271487 L 825.59982 576.484808 L 825.59982 586.178996 L 824.367711 587.392317 L 809.570025 587.392317 L 825.59982 608.000203 L 832.998663 608.000203 L 823.135603 594.666052 L 824.367711 593.452731 L 826.831928 593.452731 C 828.064037 593.050355 830.534446 591.756558 830.534446 589.818959 L 830.534446 575.271487 C 830.534446 573.655789 829.302337 569.941541 824.367711 567.997751 L 795.998256 567.997751 Z M 795.998256 606.786882 " stroke="#ff8b00" stroke-width="1" stroke-opacity="1" stroke-miterlimit="4"/><path stroke-linecap="butt" transform="matrix(0.630905, 0, 0, 0.631016, -384.859618, -344.732082)" fill-opacity="1" fill="#ff8b00" fill-rule="nonzero" stroke-linejoin="miter" d="M 838.001395 606.786882 L 846.867624 606.786882 L 846.867624 575.271487 L 867.132405 575.271487 L 868.401662 576.484808 L 868.401662 586.178996 L 867.132405 587.392317 L 851.932271 587.392317 L 868.401662 608.000203 L 875.998633 608.000203 L 865.869339 594.666052 L 867.132405 593.452731 L 869.664728 593.452731 C 870.933986 593.050355 873.46631 591.756558 873.46631 589.818959 L 873.46631 575.271487 C 873.46631 573.655789 872.197052 569.941541 867.132405 567.997751 L 838.001395 567.997751 Z M 838.001395 606.786882 " stroke="#ff8b00" stroke-width="1" stroke-opacity="1" stroke-miterlimit="4"/><path stroke-linecap="butt" transform="matrix(0.630905, 0, 0, 0.631016, -384.859618, -344.732082)" fill-opacity="1" fill="#ff8b00" fill-rule="nonzero" stroke-linejoin="miter" d="M 918.001772 599.513146 L 918.001772 608.000203 L 889.997616 608.000203 C 885.335416 608.000203 883.391285 602.342165 883.00122 599.513146 L 883.00122 575.271487 C 883.00122 571.396288 885.335416 568.808696 886.499418 567.997751 L 918.001772 567.997751 L 918.001772 575.271487 L 891.16781 575.271487 L 889.997616 577.698129 L 889.997616 598.306016 L 891.16781 599.513146 Z M 918.001772 599.513146 " stroke="#ff8b00" stroke-width="1" stroke-opacity="1" stroke-miterlimit="4"/></svg>